# xmcd
#
# Track frame offsets: 
#        183
#        8515
#        25280
#        59723
#        77863
#        95908
#        111030
#        126590
#        156175
#        181910
#        196173
#        215983
#        226563
#        250638
#
# Disc length: 3729 seconds
#
# Revision: 0
# Processed by: cddbd v1.5.2PL0 Copyright (c) Steve Scherf et al.
# Submitted via: ExactAudioCopy v1.3
#
DISCID=bc0e8f0e
DTITLE=Strauss - Der Rosenkavalier
DYEAR=1976
DGENRE=Opera
TTITLE0=Act II, Introduction - "Ein ernster Tag, ein großer Tag"
TTITLE1="In dieser feierlichen Stunde der Prüfung"
TTITLE2="Mir ist die Ehre widerfahren"
TTITLE3="Ich kenn' Ihn schon recht wohl"
TTITLE4="Jetzt aber kommt mein Herr Zukünftiger"
TTITLE5="Eh bien! Nun plauder' Sie uns eins"
TTITLE6="Wird kommen über Nacht"
TTITLE7="Wird Sie das Mannsbild da heiraten"
TTITLE8="Herr Baron von Lerchenau!"
TTITLE9="Mord! Mord! Mein Blut!"
TTITLE10="Er muß mich pardonieren"
TTITLE11="Is gut! Is gut! Ein Schluck"
TTITLE12="Da lieg' ich!"
TTITLE13="Ohne mich, ohne mich, jeder Tag dir so bang"
EXTD=
EXTT0=
EXTT1=
EXTT2=
EXTT3=
EXTT4=
EXTT5=
EXTT6=
EXTT7=
EXTT8=
EXTT9=
EXTT10=
EXTT11=
EXTT12=
EXTT13=
PLAYORDER=
